<svg width="41" height="44" viewBox="0 0 41 44" fill="none" xmlns="http://www.w3.org/2000/svg">
<path d="M38.598 3.49163C37.9464 2.65341 37.1079 1.97509 36.1478 1.50945C35.1877 1.04381 34.1319 0.803404 33.0625 0.806923H31.9501L26.9189 19.9904H0V22.8323C0 26.9605 1.67253 30.6589 4.70934 33.2462C7.58281 35.6941 11.5259 37.0423 15.8125 37.0423H19.2377L18.519 43.4368H36.6562V21.5925L39.8377 9.46211C40.1095 8.43972 40.1391 7.36912 39.9241 6.33359C39.7091 5.29806 39.2553 4.32552 38.598 3.49163ZM33.7812 40.5948H21.731L22.4498 34.2003H15.8125C8.1951 34.2003 2.875 29.5256 2.875 22.8323H33.7812V40.5948ZM37.0547 8.74886L34.1064 19.9904H29.889L34.1386 3.78781C35.1873 4.06895 36.0816 4.74747 36.6276 5.67619C37.1735 6.60492 37.3271 7.70896 37.0549 8.74886H37.0547Z" fill="white"/>
</svg>
