<svg width="156" height="73" viewBox="0 0 156 73" fill="none" xmlns="http://www.w3.org/2000/svg">
<g clip-path="url(#clip0_111_663)">
<path d="M17.2737 72.641L17.006 72.5806C19.991 59.2838 27.4924 47.2092 38.1286 38.5808C46.1699 32.0677 55.7337 27.7116 65.9196 25.9229C76.1056 24.1341 86.5784 24.9715 96.352 28.3562C106.126 31.7409 114.879 37.5614 121.787 45.2699C128.694 52.9784 133.53 62.3211 135.838 72.4183L135.571 72.4792C129.252 44.6891 104.937 25.28 76.4406 25.28C48.3176 25.28 23.4343 45.1981 17.2737 72.641Z" fill="#3F3D56"/>
<path d="M144.269 66.3114L144.681 69.3349L141.8 69.6098L142.211 65.8991L144.269 66.3114Z" fill="#A0616A"/>
<path d="M130.686 24.8066C130.686 24.8066 130.96 28.5173 130.96 28.6548C130.96 28.7922 129.04 38.2751 129.04 38.2751C129.04 38.2751 126.296 43.4975 129.04 43.3601C131.784 43.2227 130.96 38.4125 130.96 38.4125L133.842 30.4414L132.607 24.8066H130.686Z" fill="#A0616A"/>
<path d="M135.214 66.3114L134.802 69.3349L137.683 69.6098L137.272 65.8991L135.214 66.3114Z" fill="#A0616A"/>
<path d="M132.058 38.0002L131.372 38.9622C131.372 38.9622 130.96 43.0852 131.372 44.4596C131.784 45.8339 132.607 52.1558 132.607 52.5681C132.607 52.9804 132.744 53.2553 132.607 53.3927C132.47 53.5301 132.058 53.5301 132.332 53.805C132.607 54.0799 132.607 54.9044 132.607 54.9044V55.5916L134.39 65.7616C134.39 65.7616 133.293 66.9985 134.116 66.9985C134.939 66.9985 137.958 66.9985 137.821 65.6242L137.546 65.4868C137.546 65.4868 137.135 56.4162 137.272 56.0039C137.409 55.5916 137.272 54.767 137.272 54.767C137.272 54.767 136.997 54.3547 137.272 54.2173C137.546 54.0799 137.546 52.9804 137.546 52.9804L138.781 44.597C138.781 44.597 139.879 50.2317 140.565 50.7815C141.251 51.3312 141.113 52.7055 141.113 52.7055L141.662 64.7996C141.662 64.7996 141.113 66.1739 141.662 66.4488C142.211 66.7237 144.544 67.6857 144.681 66.3114C144.818 64.9371 145.504 52.9804 145.504 52.4307C145.504 51.8809 145.367 51.6061 145.504 51.1938C145.641 50.7815 145.367 50.7815 145.504 50.7815C145.641 50.7815 145.23 50.3692 145.23 50.0943V43.3601C145.23 43.3601 145.367 41.9858 145.504 41.7109C145.641 41.436 145.367 41.1612 145.504 40.7489C145.641 40.3366 145.23 38.9622 145.23 38.9622L139.055 37.313L132.058 38.0002Z" fill="#2F2E41"/>
<path d="M136.86 68.7852C136.86 68.7852 137.546 68.098 136.586 68.098C135.969 68.1106 135.362 68.251 134.802 68.5103L134.116 70.9841C134.116 70.9841 131.303 73.2518 134.459 72.9769C137.615 72.702 137.135 72.9082 137.135 72.9082C137.135 72.9082 138.095 72.6333 138.232 72.3585C138.369 72.0836 137.958 68.098 137.958 68.098C137.958 68.098 137.546 69.1975 136.86 68.7852Z" fill="#2F2E41"/>
<path d="M142.76 68.7852C142.76 68.7852 142.074 68.098 143.034 68.098C143.651 68.1106 144.258 68.251 144.818 68.5103L145.504 70.9841C145.504 70.9841 148.317 73.2518 145.161 72.9769C142.005 72.702 142.074 72.9082 142.074 72.9082C142.074 72.9082 141.113 72.6333 140.976 72.3585C140.839 72.0836 141.662 68.098 141.662 68.098C141.662 68.098 142.074 69.1975 142.76 68.7852Z" fill="#2F2E41"/>
<path d="M40.481 24.385H39.2595V72.7137H40.481V24.385Z" fill="#3F3D56"/>
<path d="M51.7537 30.5439C51.8315 47.4433 39.9617 61.198 39.9617 61.198C39.9617 61.198 27.966 47.5535 27.8882 30.6541C27.8104 13.7547 39.6802 -3.8147e-06 39.6802 -3.8147e-06C39.6802 -3.8147e-06 51.6759 13.6446 51.7537 30.5439Z" fill="#A066FF"/>
<path d="M125.472 52.7055H30.9393V72.7707H125.472V52.7055Z" fill="#F2F2F2"/>
<path d="M27.9209 54.9044L38.2111 33.3275H120.396L128.079 54.9044H27.9209Z" fill="#3F3D56"/>
<path d="M91.7203 34.7018H53.5779V47.3456H91.7203V34.7018Z" fill="#F2F2F2"/>
<path d="M56.0474 24.3943L50.0105 37.0382H95.2875L91.7202 24.3943H56.0474Z" fill="#3F3D56"/>
<path d="M87.0554 56.6911H56.9393V72.7707H87.0554V56.6911Z" fill="#CCCCCC"/>
<path d="M50.6966 57.2408H34.6438V72.7707H50.6966V57.2408Z" fill="#CCCCCC"/>
<path d="M100.57 58.2029H92.2692V72.7707H100.57V58.2029Z" fill="#3F3D56"/>
<path d="M156 72.702H0V72.9769H156V72.702Z" fill="#3F3D56"/>
<path d="M25.4895 40.8257H24.6835V72.7175H25.4895V40.8257Z" fill="#3F3D56"/>
<path d="M32.9284 44.8899C32.9797 56.0417 25.1469 65.1183 25.1469 65.1183C25.1469 65.1183 17.231 56.1144 17.1797 44.9626C17.1284 33.8109 24.9611 24.7342 24.9611 24.7342C24.9611 24.7342 32.8771 33.7382 32.9284 44.8899Z" fill="#A066FF"/>
<path opacity="0.1" d="M32.9284 44.8899C32.9797 56.0417 25.1469 65.1183 25.1469 65.1183C25.1469 65.1183 17.231 56.1144 17.1797 44.9626C17.1284 33.8109 24.9611 24.7342 24.9611 24.7342C24.9611 24.7342 32.8771 33.7382 32.9284 44.8899Z" fill="black"/>
<path d="M15.0111 40.8257H14.2051V72.7175H15.0111V40.8257Z" fill="#3F3D56"/>
<path d="M22.4499 44.8899C22.5012 56.0417 14.6684 65.1183 14.6684 65.1183C14.6684 65.1183 6.75248 56.1144 6.70118 44.9626C6.64987 33.8109 14.4826 24.7342 14.4826 24.7342C14.4826 24.7342 22.3985 33.7382 22.4499 44.8899Z" fill="#A066FF"/>
<path d="M113.604 59.0275H109.557V62.8068H113.604V59.0275Z" fill="#3F3D56"/>
<path d="M119.024 59.0275H114.976V62.8068H119.024V59.0275Z" fill="#3F3D56"/>
<path d="M113.604 64.1812H109.557V68.098H113.604V64.1812Z" fill="#3F3D56"/>
<path d="M119.024 64.1812H114.976V68.098H119.024V64.1812Z" fill="#3F3D56"/>
<path d="M60.2441 38.1615H57.0765V41.1193H60.2441V38.1615Z" fill="#3F3D56"/>
<path d="M64.4855 38.1615H61.3179V41.1193H64.4855V38.1615Z" fill="#3F3D56"/>
<path d="M60.2441 42.1949H57.0765V45.2603H60.2441V42.1949Z" fill="#3F3D56"/>
<path d="M64.4855 42.1949H61.3179V45.2603H64.4855V42.1949Z" fill="#3F3D56"/>
<path d="M83.9802 38.1615H80.8126V41.1193H83.9802V38.1615Z" fill="#3F3D56"/>
<path d="M88.2217 38.1615H85.0541V41.1193H88.2217V38.1615Z" fill="#3F3D56"/>
<path d="M83.9802 42.1949H80.8126V45.2603H83.9802V42.1949Z" fill="#3F3D56"/>
<path d="M88.2217 42.1949H85.0541V45.2603H88.2217V42.1949Z" fill="#3F3D56"/>
<path d="M72.1808 38.1615H69.0132V41.1193H72.1808V38.1615Z" fill="#3F3D56"/>
<path d="M76.4221 38.1615H73.2545V41.1193H76.4221V38.1615Z" fill="#3F3D56"/>
<path d="M72.1808 42.1949H69.0132V45.2603H72.1808V42.1949Z" fill="#3F3D56"/>
<path d="M76.4221 42.1949H73.2545V45.2603H76.4221V42.1949Z" fill="#3F3D56"/>
<path d="M96.1158 59.6788H94.1213V61.5411H96.1158V59.6788Z" fill="#F2F2F2"/>
<path d="M98.7863 59.6788H96.7919V61.5411H98.7863V59.6788Z" fill="#F2F2F2"/>
<path d="M96.1158 62.2183H94.1213V64.1483H96.1158V62.2183Z" fill="#F2F2F2"/>
<path d="M98.7863 62.2183H96.7919V64.1483H98.7863V62.2183Z" fill="#F2F2F2"/>
<path d="M99.4723 67.0673C99.7754 67.0673 100.021 66.8212 100.021 66.5175C100.021 66.2139 99.7754 65.9678 99.4723 65.9678C99.1692 65.9678 98.9235 66.2139 98.9235 66.5175C98.9235 66.8212 99.1692 67.0673 99.4723 67.0673Z" fill="#F2F2F2"/>
<path d="M87.124 58.409H56.9393V58.6839H87.124V58.409Z" fill="#F2F2F2"/>
<path d="M87.124 59.6459H56.9393V59.9208H87.124V59.6459Z" fill="#F2F2F2"/>
<path d="M87.124 60.8828H56.9393V61.1577H87.124V60.8828Z" fill="#F2F2F2"/>
<path d="M87.124 62.1197H56.9393V62.3946H87.124V62.1197Z" fill="#F2F2F2"/>
<path d="M87.124 63.3566H56.9393V63.6315H87.124V63.3566Z" fill="#F2F2F2"/>
<path d="M87.124 64.5935H56.9393V64.8683H87.124V64.5935Z" fill="#F2F2F2"/>
<path d="M87.124 65.8304H56.9393V66.1052H87.124V65.8304Z" fill="#F2F2F2"/>
<path d="M87.124 67.0673H56.9393V67.3421H87.124V67.0673Z" fill="#F2F2F2"/>
<path d="M87.124 68.3042H56.9393V68.579H87.124V68.3042Z" fill="#F2F2F2"/>
<path d="M87.124 69.5411H56.9393V69.8159H87.124V69.5411Z" fill="#F2F2F2"/>
<path d="M87.124 70.778H56.9393V71.0528H87.124V70.778Z" fill="#F2F2F2"/>
<path d="M50.6966 58.409H34.6438V58.6839H50.6966V58.409Z" fill="#F2F2F2"/>
<path d="M50.6966 59.6459H34.6438V59.9208H50.6966V59.6459Z" fill="#F2F2F2"/>
<path d="M50.6966 60.8828H34.6438V61.1577H50.6966V60.8828Z" fill="#F2F2F2"/>
<path d="M50.6966 62.1197H34.6438V62.3946H50.6966V62.1197Z" fill="#F2F2F2"/>
<path d="M50.6966 63.3566H34.6438V63.6315H50.6966V63.3566Z" fill="#F2F2F2"/>
<path d="M50.6966 64.5935H34.6438V64.8683H50.6966V64.5935Z" fill="#F2F2F2"/>
<path d="M50.6966 65.8304H34.6438V66.1052H50.6966V65.8304Z" fill="#F2F2F2"/>
<path d="M50.6966 67.0673H34.6438V67.3421H50.6966V67.0673Z" fill="#F2F2F2"/>
<path d="M50.6966 68.3042H34.6438V68.579H50.6966V68.3042Z" fill="#F2F2F2"/>
<path d="M50.6966 69.5411H34.6438V69.8159H50.6966V69.5411Z" fill="#F2F2F2"/>
<path d="M50.6966 70.778H34.6438V71.0528H50.6966V70.778Z" fill="#F2F2F2"/>
<path d="M120.327 44.3908C126.465 44.3908 131.441 39.4068 131.441 33.2588C131.441 27.1107 126.465 22.1267 120.327 22.1267C114.189 22.1267 109.214 27.1107 109.214 33.2588C109.214 39.4068 114.189 44.3908 120.327 44.3908Z" fill="#A066FF"/>
<path d="M127.325 32.1593H121.425V26.2497H119.23V32.1593H113.33V34.3582H119.23V40.2679H121.425V34.3582H127.325V32.1593Z" fill="white"/>
<path d="M133.842 13.9494C135.812 13.9494 137.409 12.3496 137.409 10.3762C137.409 8.40273 135.812 6.80293 133.842 6.80293C131.872 6.80293 130.274 8.40273 130.274 10.3762C130.274 12.3496 131.872 13.9494 133.842 13.9494Z" fill="#A0616A"/>
<path d="M132.607 12.9874C132.607 12.9874 133.156 15.7361 133.156 16.1484C133.156 16.5607 135.488 17.7976 135.488 17.7976L138.095 14.4992C138.095 14.4992 136.449 12.1628 136.449 11.6131L132.607 12.9874Z" fill="#A0616A"/>
<path d="M134.665 16.5607C134.665 16.5607 133.469 16.2419 133.107 15.7141C133.107 15.7141 129.314 19.4468 129.314 20.1339L132.332 25.4938C132.332 25.4938 132.332 27.4179 132.607 27.5553C132.881 27.6927 132.607 27.5553 132.607 28.105C132.607 28.6548 131.784 32.228 132.058 32.7778C132.332 33.3275 132.607 32.9152 132.332 33.7398C132.058 34.5644 131.372 38.9622 131.372 38.9622C131.372 38.9622 133.842 38.1376 137.409 39.512C140.976 40.8863 145.23 38.9622 145.23 38.9622C145.23 38.9622 144.132 36.4884 144.406 35.6638C144.681 34.8392 143.72 33.3275 143.72 33.3275L143.034 20.6837C143.034 20.6837 143.995 15.0489 143.309 14.774L141.937 14.2243L137.543 13.6834C137.543 13.6834 136.449 16.4232 134.665 16.5607Z" fill="#D0CDE1"/>
<path d="M130.686 19.1719L129.314 20.1339C129.314 20.1339 128.628 22.1954 129.314 23.1575C130 24.1195 130.274 25.4938 130.274 25.4938L133.018 25.2189L130.686 19.1719Z" fill="#D0CDE1"/>
<path d="M140.839 20.4088C140.839 20.4088 140.044 22.4553 140.21 24.4801C140.241 24.8426 140.363 25.1914 140.565 25.4938L130.831 30.1227C130.831 30.1227 126.433 30.5788 127.53 32.5029C128.628 34.427 132.607 31.5409 132.607 31.5409C132.607 31.5409 143.034 30.0291 143.857 28.5173C144.681 27.0056 145.23 20.6837 145.23 20.6837L140.839 20.4088Z" fill="#A0616A"/>
<path d="M131.118 6.59987L130.499 6.35173C130.499 6.35173 131.793 4.92491 133.593 5.04899L133.087 4.49066C133.087 4.49066 134.325 3.99438 135.45 5.29712C136.041 5.98194 136.725 6.78691 137.152 7.6937H137.815L137.538 8.30372L138.506 8.91373L137.512 8.80416C137.607 9.3308 137.574 9.87231 137.419 10.384L137.445 10.8662C137.445 10.8662 136.293 9.08128 136.293 8.83313V9.45349C136.293 9.45349 135.675 8.89517 135.675 8.52296L135.337 8.95721L135.168 8.27482L133.087 8.95721L133.425 8.3989L132.131 8.585L132.637 7.90261C132.637 7.90261 131.174 8.70906 131.118 9.39146C131.062 10.0739 130.331 10.9423 130.331 10.9423L129.993 10.322C129.993 10.322 129.487 7.5304 131.118 6.59987Z" fill="#2F2E41"/>
<path d="M141.251 14.774H143.309C143.309 14.774 144.818 15.0489 145.23 17.7976C145.641 20.5462 146.053 21.2334 145.641 21.2334C145.23 21.2334 140.29 21.096 140.29 20.9585C140.29 20.8211 141.251 14.774 141.251 14.774Z" fill="#D0CDE1"/>
</g>
<defs>
<clipPath id="clip0_111_663">
<rect width="156" height="73" fill="white"/>
</clipPath>
</defs>
</svg>
