<svg width="28" height="28" viewBox="0 0 28 28" fill="none" xmlns="http://www.w3.org/2000/svg">
<path d="M14.7531 6.53125H13.25C13.1125 6.53125 13 6.64375 13 6.78125V15.3844C13 15.4656 13.0375 15.5406 13.1031 15.5875L18.2688 19.3594C18.3813 19.4406 18.5375 19.4188 18.6188 19.3063L19.5125 18.0875C19.5969 17.9719 19.5719 17.8156 19.4594 17.7375L15.0031 14.5156V6.78125C15.0031 6.64375 14.8906 6.53125 14.7531 6.53125ZM21.6219 8.88125L26.5219 10.0781C26.6781 10.1156 26.8313 9.99688 26.8313 9.8375L26.8563 4.79063C26.8563 4.58125 26.6156 4.4625 26.4531 4.59375L21.5281 8.44063C21.4909 8.46942 21.4626 8.50814 21.4464 8.55232C21.4302 8.59651 21.4268 8.64437 21.4366 8.6904C21.4464 8.73642 21.469 8.77876 21.5017 8.81252C21.5345 8.84628 21.5762 8.87011 21.6219 8.88125ZM26.8625 18.2906L25.0906 17.6813C25.0289 17.6601 24.9612 17.6639 24.9023 17.6919C24.8433 17.72 24.7976 17.77 24.775 17.8313C24.7156 17.9906 24.6531 18.1469 24.5875 18.3031C24.0313 19.6188 23.2344 20.8031 22.2156 21.8188C21.2082 22.8293 20.0143 23.6348 18.7 24.1906C17.3385 24.7662 15.875 25.0617 14.3969 25.0594C12.9031 25.0594 11.4563 24.7688 10.0938 24.1906C8.7795 23.6348 7.58557 22.8293 6.57813 21.8188C5.56251 20.8031 4.76563 19.6188 4.20626 18.3031C3.63381 16.9409 3.34052 15.4776 3.34376 14C3.34376 12.5063 3.63438 11.0563 4.21251 9.69375C4.76876 8.37813 5.56563 7.19375 6.58438 6.17813C7.59182 5.16756 8.78575 4.36206 10.1 3.80625C11.4563 3.22813 12.9063 2.9375 14.4 2.9375C15.8938 2.9375 17.3406 3.22813 18.7031 3.80625C20.0174 4.36206 21.2113 5.16756 22.2188 6.17813C22.5375 6.5 22.8375 6.83438 23.1125 7.1875L24.9813 5.725C22.5219 2.58125 18.6938 0.559379 14.3938 0.562504C6.90625 0.565629 0.893756 6.64688 0.968756 14.1375C1.04376 21.4969 7.02813 27.4375 14.4 27.4375C20.1969 27.4375 25.1344 23.7625 27.0156 18.6156C27.0625 18.4844 26.9938 18.3375 26.8625 18.2906Z" fill="#DFDFDF"/>
</svg>
