<svg width="29" height="29" viewBox="0 0 29 29" fill="none" xmlns="http://www.w3.org/2000/svg">
<path d="M20.5417 20.0825C21.2891 20.0825 21.895 19.4766 21.895 18.7292C21.895 17.9818 21.2891 17.3759 20.5417 17.3759C19.7942 17.3759 19.1883 17.9818 19.1883 18.7292C19.1883 19.4766 19.7942 20.0825 20.5417 20.0825Z" fill="#54279F"/>
<path fill-rule="evenodd" clip-rule="evenodd" d="M20.5417 21.1459C19.6596 21.1459 17.8954 21.5809 17.835 22.4509C18.4392 23.3088 19.43 23.8646 20.5417 23.8646C21.6533 23.8646 22.6442 23.3088 23.2483 22.4509C23.1879 21.5809 21.4237 21.1459 20.5417 21.1459Z" fill="#54279F"/>
<path fill-rule="evenodd" clip-rule="evenodd" d="M21.75 13.4004V7.57625L12.6875 3.625L3.625 7.57625V13.5092C3.625 18.995 7.49167 24.1304 12.6875 25.375C13.3521 25.2179 13.9925 24.9883 14.6208 24.7104C15.2868 25.6627 16.1728 26.4402 17.2037 26.9766C18.2345 27.5131 19.3796 27.7927 20.5417 27.7917C24.5412 27.7917 27.7917 24.5413 27.7917 20.5417C27.7917 16.9529 25.1817 13.9804 21.75 13.4004ZM13.2917 20.5417C13.2917 21.2183 13.3883 21.8829 13.5696 22.4992C13.2796 22.6321 12.9896 22.765 12.6875 22.8617C8.85708 21.6533 6.04167 17.7383 6.04167 13.5092V9.15917L12.6875 6.25917L19.3333 9.15917V13.4004C15.9017 13.9804 13.2917 16.9529 13.2917 20.5417ZM20.5417 25.375C17.8712 25.375 15.7083 23.2121 15.7083 20.5417C15.7083 17.8713 17.8712 15.7083 20.5417 15.7083C23.2121 15.7083 25.375 17.8713 25.375 20.5417C25.375 23.2121 23.2121 25.375 20.5417 25.375Z" fill="#54279F"/>
</svg>
