<svg width="156" height="73" viewBox="0 0 156 73" fill="none" xmlns="http://www.w3.org/2000/svg">
<g clip-path="url(#clip0_111_861)">
<path d="M17.2737 72.641L17.006 72.5806C19.991 59.2838 27.4924 47.2092 38.1286 38.5808C46.1699 32.0677 55.7337 27.7116 65.9196 25.9229C76.1056 24.1341 86.5784 24.9715 96.352 28.3562C106.126 31.7409 114.879 37.5614 121.787 45.2699C128.694 52.9784 133.53 62.3211 135.838 72.4183L135.571 72.4792C129.252 44.6891 104.937 25.28 76.4406 25.28C48.3176 25.28 23.4343 45.1981 17.2737 72.641Z" fill="#3F3D56"/>
<path d="M40.481 24.385H39.2595V72.7137H40.481V24.385Z" fill="#3F3D56"/>
<path d="M51.7537 30.5439C51.8315 47.4433 39.9617 61.198 39.9617 61.198C39.9617 61.198 27.966 47.5535 27.8882 30.6541C27.8104 13.7547 39.6802 0 39.6802 0C39.6802 0 51.6759 13.6446 51.7537 30.5439Z" fill="#A066FF"/>
<path d="M125.472 52.7055H30.9393V72.7707H125.472V52.7055Z" fill="#F2F2F2"/>
<path d="M27.9209 54.9044L38.2111 33.3275H120.396L128.079 54.9044H27.9209Z" fill="#3F3D56"/>
<path d="M91.7203 34.7018H53.5779V47.3456H91.7203V34.7018Z" fill="#F2F2F2"/>
<path d="M56.0474 24.3943L50.0105 37.0382H95.2875L91.7202 24.3943H56.0474Z" fill="#3F3D56"/>
<path d="M87.0554 56.6911H56.9393V72.7707H87.0554V56.6911Z" fill="#CCCCCC"/>
<path d="M50.6966 57.2408H34.6438V72.7707H50.6966V57.2408Z" fill="#CCCCCC"/>
<path d="M100.57 58.2029H92.2692V72.7707H100.57V58.2029Z" fill="#3F3D56"/>
<path d="M156 72.702H0V72.9769H156V72.702Z" fill="#3F3D56"/>
<path d="M25.4895 40.8257H24.6835V72.7175H25.4895V40.8257Z" fill="#3F3D56"/>
<path d="M32.9284 44.8899C32.9797 56.0417 25.1469 65.1183 25.1469 65.1183C25.1469 65.1183 17.231 56.1144 17.1797 44.9626C17.1284 33.8109 24.9611 24.7342 24.9611 24.7342C24.9611 24.7342 32.8771 33.7382 32.9284 44.8899Z" fill="#A066FF"/>
<path opacity="0.1" d="M32.9284 44.8899C32.9797 56.0417 25.1469 65.1183 25.1469 65.1183C25.1469 65.1183 17.231 56.1144 17.1797 44.9626C17.1284 33.8109 24.9611 24.7342 24.9611 24.7342C24.9611 24.7342 32.8771 33.7382 32.9284 44.8899Z" fill="black"/>
<path d="M15.0111 40.8257H14.2051V72.7175H15.0111V40.8257Z" fill="#3F3D56"/>
<path d="M22.4499 44.8899C22.5012 56.0417 14.6684 65.1183 14.6684 65.1183C14.6684 65.1183 6.75248 56.1144 6.70118 44.9626C6.64987 33.8109 14.4826 24.7342 14.4826 24.7342C14.4826 24.7342 22.3985 33.7382 22.4499 44.8899Z" fill="#A066FF"/>
<path d="M113.604 59.0275H109.557V62.8068H113.604V59.0275Z" fill="#3F3D56"/>
<path d="M119.024 59.0275H114.976V62.8068H119.024V59.0275Z" fill="#3F3D56"/>
<path d="M113.604 64.1812H109.557V68.098H113.604V64.1812Z" fill="#3F3D56"/>
<path d="M119.024 64.1812H114.976V68.098H119.024V64.1812Z" fill="#3F3D56"/>
<path d="M60.2441 38.1615H57.0765V41.1193H60.2441V38.1615Z" fill="#3F3D56"/>
<path d="M64.4855 38.1615H61.3179V41.1193H64.4855V38.1615Z" fill="#3F3D56"/>
<path d="M60.2441 42.1949H57.0765V45.2603H60.2441V42.1949Z" fill="#3F3D56"/>
<path d="M64.4855 42.1949H61.3179V45.2603H64.4855V42.1949Z" fill="#3F3D56"/>
<path d="M83.9802 38.1615H80.8126V41.1193H83.9802V38.1615Z" fill="#3F3D56"/>
<path d="M88.2217 38.1615H85.0541V41.1193H88.2217V38.1615Z" fill="#3F3D56"/>
<path d="M83.9802 42.1949H80.8126V45.2603H83.9802V42.1949Z" fill="#3F3D56"/>
<path d="M88.2217 42.1949H85.0541V45.2603H88.2217V42.1949Z" fill="#3F3D56"/>
<path d="M72.1808 38.1615H69.0132V41.1193H72.1808V38.1615Z" fill="#3F3D56"/>
<path d="M76.4221 38.1615H73.2545V41.1193H76.4221V38.1615Z" fill="#3F3D56"/>
<path d="M72.1808 42.1949H69.0132V45.2603H72.1808V42.1949Z" fill="#3F3D56"/>
<path d="M76.4221 42.1949H73.2545V45.2603H76.4221V42.1949Z" fill="#3F3D56"/>
<path d="M96.1158 59.6788H94.1213V61.5411H96.1158V59.6788Z" fill="#F2F2F2"/>
<path d="M98.7863 59.6788H96.7919V61.5411H98.7863V59.6788Z" fill="#F2F2F2"/>
<path d="M96.1158 62.2183H94.1213V64.1483H96.1158V62.2183Z" fill="#F2F2F2"/>
<path d="M98.7863 62.2183H96.7919V64.1483H98.7863V62.2183Z" fill="#F2F2F2"/>
<path d="M99.4723 67.0673C99.7754 67.0673 100.021 66.8212 100.021 66.5175C100.021 66.2139 99.7754 65.9678 99.4723 65.9678C99.1692 65.9678 98.9235 66.2139 98.9235 66.5175C98.9235 66.8212 99.1692 67.0673 99.4723 67.0673Z" fill="#F2F2F2"/>
<path d="M87.124 58.409H56.9393V58.6839H87.124V58.409Z" fill="#F2F2F2"/>
<path d="M87.124 59.6459H56.9393V59.9208H87.124V59.6459Z" fill="#F2F2F2"/>
<path d="M87.124 60.8828H56.9393V61.1577H87.124V60.8828Z" fill="#F2F2F2"/>
<path d="M87.124 62.1197H56.9393V62.3946H87.124V62.1197Z" fill="#F2F2F2"/>
<path d="M87.124 63.3566H56.9393V63.6315H87.124V63.3566Z" fill="#F2F2F2"/>
<path d="M87.124 64.5935H56.9393V64.8683H87.124V64.5935Z" fill="#F2F2F2"/>
<path d="M87.124 65.8304H56.9393V66.1052H87.124V65.8304Z" fill="#F2F2F2"/>
<path d="M87.124 67.0673H56.9393V67.3421H87.124V67.0673Z" fill="#F2F2F2"/>
<path d="M87.124 68.3042H56.9393V68.579H87.124V68.3042Z" fill="#F2F2F2"/>
<path d="M87.124 69.5411H56.9393V69.8159H87.124V69.5411Z" fill="#F2F2F2"/>
<path d="M87.124 70.778H56.9393V71.0528H87.124V70.778Z" fill="#F2F2F2"/>
<path d="M50.6966 58.409H34.6438V58.6839H50.6966V58.409Z" fill="#F2F2F2"/>
<path d="M50.6966 59.6459H34.6438V59.9208H50.6966V59.6459Z" fill="#F2F2F2"/>
<path d="M50.6966 60.8828H34.6438V61.1577H50.6966V60.8828Z" fill="#F2F2F2"/>
<path d="M50.6966 62.1197H34.6438V62.3946H50.6966V62.1197Z" fill="#F2F2F2"/>
<path d="M50.6966 63.3566H34.6438V63.6315H50.6966V63.3566Z" fill="#F2F2F2"/>
<path d="M50.6966 64.5935H34.6438V64.8683H50.6966V64.5935Z" fill="#F2F2F2"/>
<path d="M50.6966 65.8304H34.6438V66.1052H50.6966V65.8304Z" fill="#F2F2F2"/>
<path d="M50.6966 67.0673H34.6438V67.3421H50.6966V67.0673Z" fill="#F2F2F2"/>
<path d="M50.6966 68.3042H34.6438V68.579H50.6966V68.3042Z" fill="#F2F2F2"/>
<path d="M50.6966 69.5411H34.6438V69.8159H50.6966V69.5411Z" fill="#F2F2F2"/>
<path d="M50.6966 70.778H34.6438V71.0528H50.6966V70.778Z" fill="#F2F2F2"/>
<path d="M95.08 49.8657V49.8674C95.08 49.8691 95.0817 49.8691 95.0834 49.8691L95.08 49.8657ZM90.8324 36.8808C90.8256 36.9234 90.8171 36.966 90.8102 37.0087C90.8171 36.966 90.8256 36.9234 90.8341 36.8808H90.8324ZM90.621 38.4547C90.6159 38.5195 90.6107 38.5843 90.6073 38.649C90.6107 38.5843 90.6159 38.5195 90.6227 38.4547C90.6224 38.4427 90.623 38.4307 90.6244 38.4188C90.6227 38.4308 90.6227 38.4427 90.621 38.4547ZM95.08 49.8674C95.08 49.8691 95.0817 49.8691 95.0834 49.8691L95.08 49.8657V49.8674ZM90.8324 36.8808C90.8256 36.9234 90.8171 36.966 90.8102 37.0087C90.8171 36.966 90.8256 36.9234 90.8341 36.8808H90.8324ZM90.6073 38.649C90.6107 38.5843 90.6159 38.5195 90.6227 38.4547C90.6224 38.4427 90.623 38.4307 90.6244 38.4188C90.6227 38.4308 90.6227 38.4427 90.621 38.4547C90.6159 38.5195 90.6107 38.5843 90.6073 38.649ZM143.287 70.0174C143.254 69.9822 143.218 69.9492 143.181 69.9184L143.179 69.9167L134.735 62.7908L134.517 62.6067L133.687 61.9058L133.479 61.7302L132.295 60.731L131.971 60.4582L131.301 59.8921L130.959 59.6022L127.726 56.8756L125.872 55.312L125.623 55.1022L120.161 50.4932C120.245 50.3738 120.327 50.2544 120.407 50.1334C120.472 50.0328 120.537 49.9339 120.601 49.8333C120.608 49.8213 120.617 49.8094 120.623 49.7974C120.661 49.7395 120.697 49.6798 120.733 49.6218C120.753 49.5911 120.772 49.5604 120.789 49.5297C120.816 49.4871 120.843 49.4428 120.869 49.3984C120.895 49.3558 120.92 49.3115 120.946 49.2672C121.065 49.0676 121.178 48.8664 121.287 48.6635L121.297 48.6448L121.384 48.4794C121.439 48.3787 121.491 48.2764 121.543 48.1741C121.545 48.1718 121.546 48.1688 121.546 48.1656C121.599 48.0616 121.652 47.9559 121.701 47.8502C121.703 47.8485 121.703 47.845 121.705 47.8433C121.768 47.712 121.829 47.5807 121.889 47.446C121.904 47.4153 121.918 47.3846 121.931 47.354C121.988 47.2244 122.044 47.0931 122.098 46.9618C122.155 46.8271 122.209 46.6906 122.262 46.5542C122.315 46.4178 122.368 46.2797 122.417 46.1433C122.511 45.8824 122.599 45.6209 122.682 45.3589C122.685 45.3439 122.69 45.3291 122.695 45.3146C122.738 45.1748 122.779 45.0366 122.82 44.8968C122.845 44.8064 122.869 44.7178 122.893 44.6274C122.91 44.5626 122.927 44.4978 122.943 44.433C122.951 44.4074 122.956 44.3835 122.963 44.358C122.985 44.271 123.006 44.1858 123.026 44.0988C123.029 44.0851 123.033 44.0698 123.036 44.0562C123.077 43.8805 123.116 43.7032 123.152 43.5275C123.171 43.4389 123.188 43.3502 123.205 43.2616C123.238 43.0842 123.27 42.9069 123.297 42.7295C123.311 42.646 123.323 42.5624 123.335 42.4789C123.347 42.4039 123.357 42.3288 123.367 42.2555C123.381 42.16 123.393 42.0662 123.403 41.9707C123.447 41.5939 123.48 41.2188 123.5 40.8419C123.507 40.7294 123.512 40.6168 123.517 40.5026C123.522 40.3713 123.526 40.2417 123.527 40.1104C123.529 40.0013 123.531 39.8904 123.531 39.7813C123.531 39.4522 123.522 39.1248 123.505 38.7957C123.478 38.2688 123.428 37.7442 123.357 37.2218C122.746 32.7568 120.549 28.6607 117.166 25.6823C113.784 22.7039 109.443 21.0422 104.937 21.0008C100.43 20.9594 96.0593 22.5412 92.623 25.4569C89.1867 28.3727 86.9145 32.4277 86.2216 36.8808C86.2046 36.9933 86.1875 37.1076 86.1722 37.2218C86.1159 37.6311 86.0739 38.042 86.046 38.4547C86.0375 38.5689 86.0307 38.6814 86.0256 38.7957C85.8744 41.6871 86.3951 44.5741 87.5468 47.2305C88.6986 49.8869 90.45 52.2404 92.6638 54.1064C93.0764 54.4543 93.4993 54.7817 93.9324 55.0886C93.9341 55.0903 93.9358 55.0903 93.9375 55.092C94.0825 55.1943 94.2274 55.2949 94.3741 55.3938C94.6076 55.5473 94.843 55.6973 95.08 55.8406C95.0988 55.8508 95.1175 55.8627 95.1363 55.873C95.3409 55.9958 95.5472 56.1134 95.7536 56.2277H95.7552C96.5233 56.6499 97.3205 57.0169 98.1408 57.3258C100.548 58.2313 103.114 58.634 105.683 58.5092H105.688C108.686 58.3642 111.605 57.5004 114.198 55.9906C114.575 55.7724 114.947 55.5388 115.31 55.2898C115.401 55.2284 115.493 55.1653 115.581 55.1022C115.69 55.0255 115.8 54.9454 115.909 54.8652C115.91 54.8652 115.91 54.8635 115.912 54.8635C115.92 54.8567 115.929 54.8505 115.938 54.8448C116.011 54.7885 116.086 54.7322 116.158 54.6777C116.176 54.664 116.195 54.6504 116.214 54.635C116.219 54.6316 116.223 54.6276 116.228 54.6231C116.27 54.5924 116.311 54.5583 116.354 54.5259C116.396 54.4935 116.437 54.4594 116.48 54.4253C116.487 54.4207 116.494 54.4156 116.5 54.4099C116.548 54.3707 116.596 54.3332 116.644 54.294C116.693 54.2548 116.741 54.2138 116.787 54.1746C116.835 54.1354 116.881 54.0962 116.928 54.0553C116.969 54.0211 117.012 53.9853 117.053 53.9478C117.066 53.9376 117.078 53.9257 117.092 53.9137C117.097 53.9087 117.103 53.9041 117.109 53.9001C117.165 53.8523 117.22 53.8029 117.275 53.7534C117.288 53.7415 117.3 53.7296 117.314 53.7176C117.397 53.6426 117.481 53.5676 117.563 53.4891C117.581 53.4721 117.602 53.4533 117.621 53.4363C117.639 53.4192 117.656 53.4022 117.675 53.3851C117.699 53.3613 117.725 53.3391 117.749 53.3152C117.81 53.2572 117.87 53.1976 117.931 53.1379L118.132 53.3084L118.206 53.3698H118.207L118.229 53.3902L118.31 53.4567L119.5 54.4628L119.525 54.4849L119.546 54.5003L119.681 54.6145L119.95 54.843L120.219 55.0698L120.259 55.1022L121.512 56.1594L121.686 56.3061L122.895 57.3258L129.153 62.6067L129.371 62.7909L137.936 70.0174L140.132 71.8709L140.949 72.5598C141.122 72.7065 141.323 72.8176 141.539 72.8867C141.756 72.9558 141.984 72.9816 142.21 72.9626C142.436 72.9436 142.657 72.8802 142.858 72.776C143.06 72.6717 143.239 72.5287 143.386 72.3552C143.508 72.2111 143.606 72.0474 143.674 71.8709C143.798 71.558 143.827 71.2156 143.758 70.8861C143.69 70.5566 143.526 70.2546 143.287 70.0174ZM93.8932 30.4898C95.6039 28.4626 97.8531 26.9607 100.381 26.1577C102.909 25.3546 105.613 25.2831 108.18 25.9514C110.747 26.6198 113.072 28.0007 114.888 29.9347C116.703 31.8686 117.934 34.2767 118.439 36.8808C118.461 36.995 118.482 37.1076 118.501 37.2218C118.57 37.6294 118.622 38.042 118.652 38.4547C118.661 38.5689 118.669 38.6814 118.674 38.7957C118.69 39.0515 118.697 39.3089 118.697 39.5647C118.698 41.1162 118.441 42.6571 117.936 44.1243V44.1261C117.372 45.7712 116.507 47.2967 115.383 48.6243C115.36 48.6516 115.336 48.6806 115.31 48.7079C115.085 48.9739 114.848 49.2296 114.604 49.4735C114.603 49.4752 114.601 49.4786 114.599 49.4803C114.516 49.5639 114.43 49.6491 114.345 49.7276C114.171 49.8964 113.994 50.0566 113.813 50.2101C113.542 50.4471 113.264 50.6694 112.979 50.8768C112.884 50.9467 112.788 51.015 112.691 51.0832C112.596 51.1514 112.498 51.2162 112.401 51.281C112.207 51.4106 112.009 51.535 111.809 51.6527C111.711 51.7124 111.608 51.7703 111.508 51.8266C111.407 51.8846 111.305 51.9392 111.202 51.992C111.1 52.0466 110.998 52.0994 110.894 52.1506C110.687 52.2546 110.479 52.3518 110.268 52.4422C110.162 52.4899 110.057 52.5343 109.951 52.5752C109.884 52.6025 109.819 52.6298 109.753 52.6536C109.727 52.6656 109.7 52.6759 109.673 52.6843C109.637 52.6997 109.601 52.7133 109.565 52.7252C109.554 52.7305 109.542 52.7351 109.53 52.7389C109.456 52.7679 109.385 52.7935 109.31 52.819C109.202 52.8583 109.095 52.8941 108.986 52.9282C108.877 52.964 108.769 52.9981 108.66 53.0288C108.551 53.0629 108.44 53.0936 108.331 53.1225C108.22 53.1532 108.111 53.1822 108 53.2078C107.882 53.2385 107.765 53.2658 107.645 53.2914C107.541 53.3153 107.439 53.3357 107.335 53.3545C107.238 53.3749 107.139 53.392 107.042 53.409C106.905 53.4329 106.769 53.4551 106.631 53.4738C106.556 53.4858 106.482 53.496 106.407 53.5028C106.375 53.5079 106.344 53.5113 106.314 53.5148C106.218 53.5284 106.123 53.5386 106.029 53.5471C106.003 53.5488 105.979 53.5523 105.956 53.554C105.852 53.5642 105.746 53.5727 105.642 53.5812C105.418 53.5966 105.197 53.6068 104.973 53.6119C104.861 53.6136 104.747 53.6153 104.634 53.6153C104.522 53.6153 104.409 53.6136 104.296 53.6102C104.296 53.6102 104.296 53.6119 104.295 53.6102C104.293 53.6119 104.293 53.6119 104.291 53.6102C104.291 53.6105 104.291 53.6106 104.291 53.6108C104.29 53.6109 104.29 53.611 104.29 53.611C104.289 53.611 104.289 53.6109 104.289 53.6108C104.288 53.6106 104.288 53.6105 104.288 53.6102C104.282 53.6119 104.276 53.6119 104.271 53.6102C104.191 53.6102 104.111 53.6068 104.032 53.6017C103.974 53.6 103.914 53.5983 103.855 53.5932C103.775 53.5898 103.695 53.5847 103.614 53.5778C103.589 53.5778 103.563 53.5744 103.538 53.5727C103.526 53.5724 103.514 53.5713 103.502 53.5693C103.42 53.5625 103.336 53.5557 103.255 53.5471C103.214 53.5437 103.171 53.5403 103.13 53.5352C103.006 53.5216 102.881 53.5062 102.758 53.4892C102.619 53.4721 102.479 53.4517 102.341 53.4261C102.276 53.4175 102.213 53.4056 102.15 53.3937C102.066 53.38 101.983 53.3647 101.899 53.3476C101.812 53.3306 101.725 53.3135 101.638 53.2931C101.568 53.2777 101.497 53.2624 101.427 53.2453C101.393 53.2385 101.358 53.23 101.326 53.2215C101.147 53.1788 100.97 53.1328 100.794 53.0816C100.683 53.051 100.572 53.0186 100.463 52.9844C100.313 52.9384 100.165 52.889 100.016 52.8361C99.9585 52.8173 99.9022 52.7969 99.8442 52.7747C99.7863 52.756 99.73 52.7338 99.672 52.7116C99.6192 52.6928 99.5663 52.6724 99.5151 52.6519C99.4299 52.6195 99.3463 52.5854 99.2628 52.5513C99.0905 52.4814 98.9217 52.4081 98.7529 52.3297C98.6574 52.2836 98.562 52.2393 98.4682 52.1933C98.0982 52.0142 97.7338 51.8153 97.3751 51.5964C97.2865 51.5436 97.1978 51.4873 97.1091 51.431C96.9983 51.3628 96.8909 51.2912 96.7835 51.2196C96.7238 51.1787 96.6658 51.1395 96.6078 51.0985C96.5004 51.0235 96.3946 50.9468 96.2907 50.87C96.2361 50.8308 96.1815 50.7899 96.1287 50.749C95.9394 50.6057 95.7535 50.4557 95.5711 50.3022C95.4841 50.2289 95.3971 50.1539 95.3119 50.0771C95.2761 50.0464 95.2402 50.014 95.2044 49.9816C95.1636 49.9441 95.1226 49.9083 95.0834 49.8691L95.08 49.8657C95.0203 49.8128 94.9606 49.7565 94.9026 49.7003C94.8123 49.615 94.7236 49.5281 94.6384 49.4394C94.5497 49.3524 94.4644 49.2621 94.3809 49.1734C94.2956 49.0847 94.2138 48.9943 94.1336 48.9023C94.0518 48.8119 93.9716 48.7198 93.8932 48.626C93.8164 48.5374 93.7414 48.4453 93.6698 48.3549C93.4959 48.1401 93.3299 47.9212 93.1719 47.6984C93.0986 47.5961 93.0287 47.4938 92.9604 47.3898C92.8871 47.284 92.8172 47.1766 92.7507 47.0692C92.6808 46.9618 92.6143 46.8526 92.5495 46.7418C92.5478 46.738 92.5455 46.7346 92.5427 46.7316C92.4148 46.515 92.292 46.2968 92.1778 46.0751C92.0601 45.85 91.9493 45.6227 91.8453 45.393C91.7924 45.2788 91.7413 45.1628 91.6935 45.0469C91.5946 44.8133 91.5025 44.5797 91.4173 44.3426C91.3746 44.2284 91.3354 44.1141 91.2962 43.9982C91.2949 43.9905 91.2927 43.9831 91.2894 43.976C91.2109 43.7407 91.1393 43.5037 91.0762 43.265C91.0745 43.2616 91.0745 43.2582 91.0728 43.2548C91.0404 43.1371 91.0097 43.0194 90.9825 42.9001C90.9552 42.7961 90.9313 42.692 90.9091 42.5863C90.8836 42.4686 90.858 42.351 90.8358 42.2316C90.8239 42.1702 90.812 42.1089 90.8017 42.0475C90.7915 41.9963 90.7829 41.9435 90.7744 41.8923C90.7659 41.8412 90.7574 41.7883 90.7488 41.7354C90.7318 41.6314 90.7164 41.5274 90.7028 41.4234C90.6857 41.3006 90.6721 41.1778 90.6585 41.0534C90.6431 40.905 90.6295 40.7566 90.6175 40.6066C90.609 40.506 90.6039 40.4037 90.5988 40.3014C90.5936 40.2076 90.5886 40.1138 90.5869 40.02C90.5852 40.0151 90.5852 40.0097 90.5869 40.0047C90.5866 40.0045 90.5864 40.0042 90.5863 40.0039C90.5862 40.0036 90.5861 40.0033 90.5861 40.003C90.5861 40.0027 90.5862 40.0023 90.5863 40.0021C90.5864 40.0018 90.5866 40.0015 90.5869 40.0013C90.5852 39.9996 90.5852 39.9996 90.5869 39.9979C90.5866 39.9976 90.5864 39.9974 90.5863 39.9971C90.5862 39.9968 90.5861 39.9965 90.5861 39.9962C90.5861 39.9958 90.5862 39.9955 90.5863 39.9952C90.5864 39.9949 90.5866 39.9947 90.5869 39.9945C90.5852 39.9569 90.5834 39.9194 90.5834 39.8819C90.58 39.7711 90.5783 39.6603 90.5783 39.5494C90.5783 39.4488 90.58 39.3499 90.5817 39.2493C90.5852 39.1095 90.5903 38.9697 90.5971 38.8298C90.5971 38.7991 90.6005 38.7701 90.6022 38.7395C90.6039 38.7088 90.6056 38.6798 90.6073 38.6491C90.6107 38.5843 90.6158 38.5195 90.6227 38.4547C90.6224 38.4427 90.623 38.4308 90.6244 38.4189C90.6295 38.3456 90.6363 38.2722 90.6431 38.1989C90.6568 38.0523 90.6738 37.9039 90.6926 37.7573C90.7028 37.684 90.7113 37.6106 90.7233 37.5373C90.7301 37.4862 90.7386 37.4333 90.7471 37.3804C90.754 37.3276 90.7625 37.2747 90.7727 37.2219C90.7846 37.1519 90.7966 37.0803 90.8102 37.0087C90.817 36.9661 90.8256 36.9234 90.8341 36.8808C90.8665 36.7103 90.9023 36.5398 90.9415 36.3693C90.9807 36.197 91.0251 36.0265 91.0728 35.856C91.1188 35.6838 91.17 35.5116 91.2246 35.3393C91.2501 35.2524 91.2775 35.1671 91.3081 35.0819C91.3644 34.9096 91.4241 34.7391 91.4906 34.5703C91.5213 34.4868 91.5537 34.4015 91.5895 34.3179C91.6577 34.1491 91.7293 33.9803 91.8026 33.8149C91.8401 33.7314 91.8777 33.6478 91.9186 33.5643C91.9953 33.3989 92.0755 33.2335 92.1624 33.0715C92.246 32.9061 92.3364 32.7441 92.4284 32.5838C92.5205 32.4235 92.616 32.2632 92.7166 32.1046C92.7627 32.0262 92.8138 31.9461 92.8666 31.8693C92.969 31.7124 93.0764 31.5556 93.1855 31.4021C93.4055 31.0917 93.6425 30.7865 93.8932 30.4898ZM90.621 38.4547C90.6159 38.5195 90.6107 38.5843 90.6073 38.649C90.6107 38.5843 90.6159 38.5195 90.6227 38.4547C90.6224 38.4427 90.623 38.4307 90.6244 38.4188C90.6227 38.4308 90.6227 38.4427 90.621 38.4547ZM90.8324 36.8808C90.8256 36.9234 90.8171 36.966 90.8103 37.0087C90.8171 36.966 90.8256 36.9234 90.8341 36.8808H90.8324ZM95.08 49.8657V49.8674C95.08 49.8691 95.0817 49.8691 95.0834 49.8691L95.08 49.8657Z" fill="#A066FF"/>
<path opacity="0.3" d="M95.5712 50.302C92.8741 48.026 91.1316 44.8189 90.6896 41.3176C90.2477 37.8162 91.1386 34.2767 93.1855 31.4019C92.9167 31.6726 92.6568 31.9561 92.4059 32.2524C91.2153 33.6635 90.3142 35.2953 89.7542 37.0546C89.1941 38.8138 88.9861 40.6662 89.142 42.5059C89.2978 44.3456 89.8145 46.1366 90.6625 47.7766C91.5105 49.4166 92.6733 50.8735 94.0843 52.0642C96.9341 54.4688 100.622 55.6429 104.338 55.3281C108.053 55.0133 111.491 53.2355 113.896 50.3857C114.146 50.089 114.382 49.7852 114.603 49.4742C112.114 51.9755 108.775 53.4492 105.249 53.6026C101.723 53.756 98.2686 52.5778 95.5712 50.302Z" fill="black"/>
</g>
<defs>
<clipPath id="clip0_111_861">
<rect width="156" height="73" fill="white"/>
</clipPath>
</defs>
</svg>
